<svg xmlns="http://www.w3.org/2000/svg" xmlns:xlink="http://www.w3.org/1999/xlink" viewBox="0,0,256,256" width="64px" height="64px" fill-rule="nonzero"><g fill="#ebdcb2" fill-rule="nonzero" stroke="none" stroke-width="1" stroke-linecap="butt" stroke-linejoin="miter" stroke-miterlimit="10" stroke-dasharray="" stroke-dashoffset="0" font-family="none" font-weight="none" font-size="none" text-anchor="none" style="mix-blend-mode: normal"><g transform="scale(4,4)"><path d="M26.88672,4.84375c-1.66105,0.05921 -3.42956,0.44275 -5.28125,1.23633c-6.11615,2.62128 -8.70522,6.81203 -8.98828,11.40039c-0.25476,4.12955 1.26013,8.50434 3.07812,12.74219c-1.90326,0.01206 -4.21983,-0.0029 -5.46289,-0.05273c-0.40171,-0.01587 -0.77389,0.21034 -0.94476,0.57425c-0.17087,0.36391 -0.10723,0.79476 0.16156,1.09372c1.6396,1.8223 3.48988,4.63571 3.76953,7.28711c0.54271,5.14879 2.04004,10.13486 5.08594,13.88672c3.0459,3.75186 7.68164,6.18369 14.08398,6.1582c7.76317,-0.03072 12.48177,-3.74486 15.13867,-8.19531c2.6569,-4.45045 3.39429,-9.58923 3.72656,-12.75977c0.34032,-3.2467 2.95703,-6.82227 2.95703,-6.82227c0.23011,-0.3026 0.26877,-0.7095 0.09975,-1.05001c-0.16902,-0.34052 -0.51647,-0.55576 -0.89663,-0.55546h-14.24414c-2.84454,0 -5.4444,1.51106 -7.41602,3.66797c-2.47384,-2.17148 -5.56855,-3.42969 -8.38867,-3.42969c-0.36064,-0.0051 -0.69608,0.18438 -0.87789,0.49587c-0.18181,0.3115 -0.18181,0.69676 0,1.00825c0.18181,0.3115 0.51725,0.50097 0.87789,0.49587c2.20731,0 4.94538,1.06291 7.07617,2.93555c0.05676,0.04988 0.08474,0.1268 0.14063,0.17773c-1.41496,2.12262 -2.41881,4.57772 -2.38281,7.21094c0.02459,1.78901 0.44683,3.24038 1.14844,4.30664c0.7016,1.06626 1.7174,1.76373 2.83594,1.8418c1.11853,0.07807 2.23106,-0.52625 2.93164,-1.57031c0.70058,-1.04406 1.06934,-2.50077 1.03711,-4.37109c-0.05228,-3.03373 -1.42093,-5.50974 -3.18164,-7.55664c1.69586,-1.96787 3.95051,-3.21289 6.19922,-3.21289h12.42578c-0.89853,1.41273 -2.04554,3.50417 -2.33008,6.21875c-0.32273,3.07946 -1.06573,7.94107 -3.45508,11.94336c-2.38935,4.00229 -6.28086,7.19242 -13.42969,7.2207c-5.90565,0.02351 -9.82558,-2.09483 -12.52344,-5.41797c-2.69785,-3.32314 -4.1341,-7.93773 -4.65039,-12.83594c-0.27504,-2.60771 -1.6305,-4.84627 -3.04883,-6.72852c1.68692,0.03893 3.54791,0.09316 5.02148,0.04688c0.33371,-0.01038 0.64024,-0.18661 0.81712,-0.46978c0.17688,-0.28317 0.20079,-0.63593 0.06374,-0.94038c-2.05312,-4.56991 -3.69171,-9.25831 -3.44727,-13.2207c0.24444,-3.96239 2.1564,-7.27287 7.78125,-9.68359c3.29663,-1.41284 6.05078,-1.33789 8.45703,-0.47852c2.40626,0.85938 4.47127,2.55227 6.14648,4.4668c3.35043,3.82906 5.06445,8.4375 5.06445,8.4375c0.11244,0.34975 0.40758,0.6097 0.76874,0.67706c0.36115,0.06736 0.73016,-0.06871 0.96112,-0.35441c0.23096,-0.2857 0.28668,-0.67504 0.14514,-1.01405c0,0 -1.78598,-4.89156 -5.43555,-9.0625c-1.82479,-2.08546 -4.13477,-4.01758 -6.97852,-5.0332c-1.42187,-0.50781 -2.97567,-0.77405 -4.63672,-0.71484zM31.88867,36.79883c1.25655,1.64328 2.22448,3.51908 2.26367,5.79297c0.02727,1.58217 -0.30688,2.63892 -0.69727,3.2207c-0.39039,0.58179 -0.75752,0.71551 -1.13086,0.68945c-0.37334,-0.02606 -0.86307,-0.27417 -1.30469,-0.94531c-0.44162,-0.67114 -0.7999,-1.74938 -0.82031,-3.23437c-0.02672,-1.95447 0.69763,-3.82921 1.68945,-5.52344z"></path></g></g></svg>