<svg xmlns="http://www.w3.org/2000/svg" xmlns:xlink="http://www.w3.org/1999/xlink" viewBox="0,0,256,256" width="64px" height="64px" fill-rule="nonzero"><g fill="#ebdcb2" fill-rule="nonzero" stroke="none" stroke-width="1" stroke-linecap="butt" stroke-linejoin="miter" stroke-miterlimit="10" stroke-dasharray="" stroke-dashoffset="0" font-family="none" font-weight="none" font-size="none" text-anchor="none" style="mix-blend-mode: normal"><g transform="scale(4,4)"><path d="M32.5,5.85938c-6.73589,-0.18834 -11.03316,3.42164 -13.38086,8.38477c-2.21326,4.67891 -2.82979,10.52685 -2.90039,15.98437c-1.96975,0.02687 -4.62416,-0.004 -5.98633,-0.05859c-0.40171,-0.01587 -0.77389,0.21034 -0.94476,0.57425c-0.17087,0.36391 -0.10723,0.79476 0.16156,1.09372c1.6396,1.8223 3.48988,4.63571 3.76953,7.28711c0.54271,5.14879 2.04004,10.13486 5.08594,13.88672c3.0459,3.75186 7.68164,6.18369 14.08398,6.1582c7.76317,-0.03072 12.48177,-3.74486 15.13867,-8.19531c2.6569,-4.45045 3.39429,-9.58923 3.72656,-12.75977c0.34032,-3.2467 2.95703,-6.82227 2.95703,-6.82227c0.23011,-0.3026 0.26877,-0.7095 0.09975,-1.05001c-0.16902,-0.34052 -0.51647,-0.55576 -0.89663,-0.55546h-14.24414c-2.84454,0 -5.4444,1.51106 -7.41602,3.66797c-2.47384,-2.17148 -5.56855,-3.42969 -8.38867,-3.42969c-0.36064,-0.0051 -0.69608,0.18438 -0.87789,0.49587c-0.18181,0.3115 -0.18181,0.69676 0,1.00825c0.18181,0.3115 0.51725,0.50097 0.87789,0.49587c2.20731,0 4.94538,1.06291 7.07617,2.93555c0.05676,0.04988 0.08474,0.1268 0.14063,0.17773c-1.41496,2.12262 -2.41881,4.57772 -2.38281,7.21094c0.02459,1.78901 0.44683,3.24038 1.14844,4.30664c0.7016,1.06626 1.7174,1.76373 2.83594,1.8418c1.11853,0.07807 2.23106,-0.52625 2.93164,-1.57031c0.70058,-1.04406 1.06934,-2.50077 1.03711,-4.37109c-0.05228,-3.03373 -1.42093,-5.50974 -3.18164,-7.55664c1.69586,-1.96787 3.95051,-3.21289 6.19922,-3.21289h12.42578c-0.89853,1.41273 -2.04554,3.50417 -2.33008,6.21875c-0.32273,3.07946 -1.06573,7.94107 -3.45508,11.94336c-2.38935,4.00229 -6.28086,7.19242 -13.42969,7.2207c-5.90565,0.02351 -9.82558,-2.09483 -12.52344,-5.41797c-2.69785,-3.32314 -4.1341,-7.93773 -4.65039,-12.83594c-0.27504,-2.60771 -1.6305,-4.84627 -3.04883,-6.72852c1.68692,0.03893 3.54791,0.09316 5.02148,0.04688c0.54002,-0.01694 0.96896,-0.45971 0.96875,-1c0,-5.57967 0.65699,-11.64814 2.7793,-16.13477c2.1223,-4.48663 5.48546,-7.4089 11.51758,-7.24023c3.38986,0.09487 5.81121,1.20529 7.64648,2.82227c1.83527,1.61698 3.0748,3.77649 3.89844,5.9668c1.64728,4.38061 1.5918,8.76563 1.5918,8.76562c-0.02202,0.36698 0.15907,0.71646 0.4716,0.91008c0.31253,0.19362 0.70608,0.20016 1.02487,0.01703c0.31879,-0.18313 0.5114,-0.5264 0.50158,-0.89391c0,0 0.08993,-4.69927 -1.7168,-9.50391c-0.90336,-2.40231 -2.28924,-4.86062 -4.44922,-6.76367c-2.15998,-1.90306 -5.10393,-3.21368 -8.91406,-3.32031zM31.88867,36.79883c1.25655,1.64328 2.22448,3.51908 2.26367,5.79297c0.02727,1.58217 -0.30688,2.63892 -0.69727,3.2207c-0.39039,0.58179 -0.75752,0.71551 -1.13086,0.68945c-0.37334,-0.02606 -0.86307,-0.27417 -1.30469,-0.94531c-0.44162,-0.67114 -0.7999,-1.74938 -0.82031,-3.23437c-0.02672,-1.95447 0.69763,-3.82921 1.68945,-5.52344z"></path></g></g></svg>